{"title":"Better Living Through Chemistry 2014 DVD9rip English Klam","uid":9911168,"size":1230851230,"categoryP":"video","categoryS":"movies","magnet":"?xt=urn:btih:8e3ecc9578653608cdfd9257c97e9937740b37cd&amp;dn=Better+Living+Through+Chemistry+2014+DVD9rip+English+Klam&amp;tr=udp%3A%2F%2Ftracker.openbittorrent.com%3A80&amp;tr=udp%3A%2F%2Fopen.demonii.com%3A1337&amp;tr=udp%3A%2F%2Ftracker.coppersurfer.tk%3A6969&amp;tr=udp%3A%2F%2Fexodus.desync.com%3A6969","seeders":1,"leechers":0,"uploader":"Klambake","files":-1,"time":1396899934,"description":"With: Olivia Wilde, Michelle Monaghan and Sam Rockwell\n\nDouglas Varney (Sam Rockwell) is een zachtmoedige apotheker in een klein stadje die gevangen zit in een liefdeloos huwelijk. Wanneer hij een affaire begint met een vrouw (Olivia Wilde) introduceert zij hem in een wereld van seks en drugs. Het begint echter uit de hand te lopen wanneer ze een samenzwering beginnen om haar man te vermoorden.\n\nA strait-laced pharmacist's uneventful life spirals out of control when he starts an affair with a trophy-wife customer who takes him on a joyride involving sex, drugs and possibly murder.\n &lt;a href=&quot;\nhttp://www.imdb.com/title/tt1609479&quot; rel=&quot;nofollow&quot; target=&quot;_NEW&quot;&gt;\nhttp://www.imdb.com/title/tt1609479&lt;/a&gt;\t\n\n--------------------- Dutch Friends 4ever ---------------------\n---------------------------------------------------------------\n- Bezoek ook eens mijn vrienden op: &lt;a href=&quot; http://www.Film-Test.nl&quot; rel=&quot;nofollow&quot; target=&quot;_NEW&quot;&gt; http://www.Film-Test.nl&lt;/a&gt; --\n----- voor mijn Nederlandse Sync. ondertitels ---- en meer ----\n------- http://www.Film-Test.nl ---- Over Films en meer -------\n---------------------------------------------------------------\n\nGeneral:\n\nComplete name                            : Better Living Through ChemistryBetter Living Through Chemistry.avi\nFormat                                   : AVI\nFormat/Info                              : Audio Video Interleave\nFile size                                : 1.15 GiB\nDuration                                 : 1h 27mn\nOverall bit rate                         : 1 865 Kbps\n\nVideo:\n\nFormat                                   : MPEG-4 Visual\nFormat profile                           : Simple@L3\nFormat settings, BVOP                    : No\nFormat settings, QPel                    : No\nFormat settings, GMC                     : No warppoints\nFormat settings, Matrix                  : Default (H.263)\nCodec ID                                 : XVID\nCodec ID/Hint                            : XviD\nDuration                                 : 1h 27mn\nBit rate                                 : 1 407 Kbps\nWidth                                    : 720 pixels\nHeight                                   : 304 pixels\nDisplay aspect ratio                     : 2.35:1\nFrame rate                               : 25.000 fps\nColor space                              : YUV\nChroma subsampling                       : 4:2:0\nBit depth                                : 8 bits\nScan type                                : Progressive\nCompression mode                         : Lossy\nBits/(Pixel*Frame)                       : 0.257\nStream size                              : 885 MiB (75%)\nWriting library                          : XviD 1.1.2 (UTC 2006-11-01)\n\nAudio:\n\nFormat                                   : AC-3\nFormat/Info                              : Audio Coding 3\nMode extension                           : CM (complete main)\nFormat settings, Endianness              : Big\nCodec ID                                 : 2000\nDuration                                 : 1h 27mn\nSource duration                          : 1h 27mn\nBit rate mode                            : Constant\nBit rate                                 : 448 Kbps\nChannel(s)                               : 6 channels\nChannel positions                        : Front: L C R, Side: L R, LFE\nSampling rate                            : 48.0 KHz\nBit depth                                : 16 bits\nCompression mode                         : Lossy\nStream size                              : 282 MiB (24%)\nAlignment                                : Aligned on interleaves\nInterleave, duration                     : 32 ms (0.80 video frame)\nInterleave, preload duration             : 864 ms\n","torrent":{"xt":"urn:btih:8e3ecc9578653608cdfd9257c97e9937740b37cd","amp;dn":"Better+Living+Through+Chemistry+2014+DVD9rip+English+Klam","amp;tr":["udp%3A%2F%2Ftracker.openbittorrent.com%3A80","udp%3A%2F%2Fopen.demonii.com%3A1337","udp%3A%2F%2Ftracker.coppersurfer.tk%3A6969","udp%3A%2F%2Fexodus.desync.com%3A6969"],"infoHash":"8e3ecc9578653608cdfd9257c97e9937740b37cd","infoHashBuffer":{"type":"Buffer","data":[142,62,204,149,120,101,54,8,205,253,146,87,201,126,153,55,116,11,55,205]},"announce":[],"urlList":[]}}